<svg viewBox="0 0 24 24" fill="none" xmlns="http://www.w3.org/2000/svg">
<path fill-rule="evenodd" clip-rule="evenodd" d="M18 3C16.3431 3 15 4.34315 15 6H13.5V7.5H18V6H16.5C16.5 5.17157 17.1716 4.5 18 4.5C18.8284 4.5 19.5 5.17157 19.5 6V9.75H2.25V11.25H3.14831L4.25675 16.238C4.38272 16.8049 4.7162 17.2817 5.16654 17.5957L4.78569 19.5H6.3154L6.61542 17.9999H17.4146L17.7896 19.5H19.3358L18.8557 17.5799C19.2947 17.2658 19.6192 16.7954 19.7431 16.238L20.8515 11.25H21.75V9.75H21V6C21 4.34315 19.6569 3 18 3ZM4.6849 11.25H19.3149L18.2788 15.9126C18.2025 16.2558 17.8982 16.4999 17.5467 16.4999H6.45317C6.10165 16.4999 5.79729 16.2558 5.72103 15.9126L4.6849 11.25Z" fill="#151515"></path>
</svg>