<svg viewBox="0 0 24 24" fill="none" xmlns="http://www.w3.org/2000/svg">
<path fill-rule="evenodd" clip-rule="evenodd" d="M5.25 4.5C4.42157 4.5 3.75 5.17157 3.75 6V11.25C2.92157 11.25 2.25 11.9216 2.25 12.75V16.5C2.25 17.3284 2.92157 18 3.75 18H5.25V19.5H6.75V18H17.25V19.5H18.75V18H20.25C21.0784 18 21.75 17.3284 21.75 16.5V12.75C21.75 11.9216 21.0784 11.25 20.25 11.25V6C20.25 5.17157 19.5784 4.5 18.75 4.5H5.25ZM18.75 11.25V6H5.25V11.25H6V9.75C6 8.92157 6.67157 8.25 7.5 8.25H11.25C11.5232 8.25 11.7794 8.32305 12 8.45067C12.2206 8.32305 12.4768 8.25 12.75 8.25H16.5C17.3284 8.25 18 8.92157 18 9.75V11.25H18.75ZM18 12.75H12.75H11.25H6H5.25H3.75V16.5H20.25V12.75H18.75H18ZM11.25 11.25V9.75H7.5V11.25H11.25ZM16.5 11.25V9.75H12.75V11.25H16.5Z" fill="#151515"></path>
</svg>