<svg viewBox="0 0 24 24" fill="none" xmlns="http://www.w3.org/2000/svg">
<path fill-rule="evenodd" clip-rule="evenodd" d="M11.25 9C11.25 6.51472 13.2647 4.5 15.75 4.5C18.2353 4.5 20.25 6.51472 20.25 9C20.25 11.2297 18.6283 13.0807 16.5 13.4378V11.6252L19.2002 9.59997L18.3002 8.39997L16.5 9.75015V8.25H15V13.4378C12.8717 13.0807 11.25 11.2297 11.25 9ZM15 14.9536C14.0117 14.8303 13.0981 14.4668 12.3195 13.9232C11.7009 15.2298 10.4715 16.1909 9 16.4378V18.75H15V14.9536ZM16.5 18.75H21.75V20.25H2.25V18.75H7.5V16.4378C5.37171 16.0807 3.75 14.2297 3.75 12C3.75 9.51472 5.76472 7.5 8.25 7.5C8.82107 7.5 9.3673 7.60638 9.86994 7.8004C10.4257 5.06151 12.8471 3 15.75 3C19.0637 3 21.75 5.68629 21.75 9C21.75 12.0597 19.4597 14.5845 16.5 14.9536V18.75ZM9.76374 9.40935C9.31939 9.14915 8.80211 9 8.25 9C6.59315 9 5.25 10.3431 5.25 12C5.25 13.3979 6.20608 14.5725 7.5 14.9055V12.75H9V14.9055C10.0266 14.6412 10.8406 13.8472 11.1331 12.8322C10.3509 11.8909 9.85115 10.7067 9.76374 9.40935Z" fill="#151515"></path>
</svg>